<svg data-v-423bf9ae="" xmlns="http://www.w3.org/2000/svg" viewBox="0 0 418 90" class="iconLeft"><!----><!----><!----><g data-v-423bf9ae="" id="945ac482-3df1-461e-920c-088139d30e03" fill="#000000" transform="matrix(4.705882000950682,0,0,4.705882000950682,106.04705779046489,-16.905879186676714)"><path d="M3.30 14.88L3.30 17.18L0.84 17.18L0.84 8.43L4.69 8.43Q6.38 8.43 7.11 9.16Q7.84 9.90 7.84 11.59L7.84 11.59Q7.84 13.29 7.13 14.08Q6.41 14.88 4.90 14.88L4.90 14.88L3.30 14.88ZM3.30 13.08L4.61 13.08Q4.97 13.08 5.11 12.95Q5.25 12.82 5.25 12.49L5.25 12.49L5.25 11.05Q5.25 10.71 5.11 10.58Q4.97 10.46 4.61 10.46L4.61 10.46L3.30 10.46L3.30 13.08ZM12.07 9.98Q13.68 9.98 14.41 10.54Q15.13 11.09 15.13 12.32L15.13 12.32L15.13 17.18L13.92 17.18L13.30 16.48Q12.24 17.37 10.89 17.37L10.89 17.37Q9.65 17.37 9.08 16.82Q8.51 16.27 8.51 15.06L8.51 15.06Q8.51 14.17 8.86 13.68Q9.20 13.19 10.01 12.98Q10.82 12.77 12.31 12.77L12.31 12.77L12.67 12.77L12.67 11.89Q12.38 11.80 11.80 11.80L11.80 11.80Q10.54 11.80 9.13 12.17L9.13 12.17L8.83 10.44Q10.29 9.98 12.07 9.98L12.07 9.98ZM11.68 15.68Q12.25 15.68 12.46 15.55Q12.67 15.43 12.67 15.08L12.67 15.08L12.67 14.06L11.79 14.06Q11.21 14.06 11.00 14.19Q10.78 14.32 10.78 14.69L10.78 14.69L10.78 15.68L11.68 15.68ZM19.21 14.88L19.21 17.18L16.74 17.18L16.74 8.43L20.59 8.43Q22.29 8.43 23.02 9.16Q23.74 9.90 23.74 11.59L23.74 11.59Q23.74 13.29 23.03 14.08Q22.32 14.88 20.80 14.88L20.80 14.88L19.21 14.88ZM19.21 13.08L20.51 13.08Q20.87 13.08 21.01 12.95Q21.15 12.82 21.15 12.49L21.15 12.49L21.15 11.05Q21.15 10.71 21.01 10.58Q20.87 10.46 20.51 10.46L20.51 10.46L19.21 10.46L19.21 13.08ZM28.22 15.55Q29.41 15.55 30.70 15.19L30.70 15.19L31.01 16.91Q29.62 17.37 27.96 17.37L27.96 17.37Q26.11 17.37 25.30 16.51Q24.49 15.65 24.49 13.68L24.49 13.68Q24.49 11.72 25.32 10.85Q26.15 9.98 28.01 9.98L28.01 9.98Q29.26 9.98 29.94 10.19Q30.62 10.40 30.91 10.89Q31.19 11.38 31.19 12.29L31.19 12.29Q31.19 13.19 30.83 13.68Q30.46 14.17 29.60 14.38Q28.73 14.59 27.13 14.59L27.13 14.59L27.13 15.47Q27.52 15.55 28.22 15.55L28.22 15.55ZM28.14 11.80Q27.57 11.80 27.35 11.93Q27.13 12.05 27.13 12.40L27.13 12.40L27.13 13.30L27.96 13.30Q28.53 13.30 28.75 13.17Q28.97 13.03 28.97 12.67L28.97 12.67L28.97 11.80L28.14 11.80ZM33.91 10.18L34.61 11.14Q35.55 10.23 36.65 9.97L36.65 9.97L36.81 12.36Q36.44 12.42 35.92 12.62Q35.41 12.82 35.15 13.01L35.15 13.01L35.15 17.18L32.69 17.18L32.69 10.18L33.91 10.18ZM41.73 9.98Q42.78 9.98 43.41 10.35Q44.04 10.72 44.34 11.53Q44.63 12.33 44.63 13.68L44.63 13.68Q44.63 15.02 44.34 15.83Q44.04 16.65 43.41 17.02Q42.78 17.39 41.73 17.39L41.73 17.39Q40.80 17.39 40.21 17.12L40.21 17.12L40.21 19.33L37.74 19.53L37.74 10.18L38.96 10.18L39.42 10.85Q39.77 10.40 40.35 10.19Q40.92 9.98 41.73 9.98L41.73 9.98ZM41.99 15.13L41.99 11.86L40.78 11.86Q40.45 11.86 40.33 11.94Q40.21 12.01 40.21 12.22L40.21 12.22L40.21 15.51L41.43 15.51Q41.75 15.51 41.87 15.44Q41.99 15.36 41.99 15.13L41.99 15.13ZM45.88 17.18L45.88 17.18ZM45.99 10.47L48.45 10.15L48.45 17.18L45.99 17.18L45.99 10.47ZM47.21 9.44Q46.68 9.44 46.40 9.32Q46.12 9.21 46.00 8.93Q45.88 8.65 45.88 8.12L45.88 8.12Q45.88 7.35 46.16 7.06Q46.44 6.78 47.21 6.78L47.21 6.78Q47.98 6.78 48.26 7.06Q48.54 7.35 48.54 8.12L48.54 8.12Q48.54 8.89 48.26 9.16Q47.98 9.44 47.21 9.44L47.21 9.44ZM52.56 15.41Q52.92 15.47 53.23 15.50L53.23 15.50L53.12 17.16Q52.35 17.37 51.72 17.37L51.72 17.37Q50.89 17.37 50.49 17.03Q50.09 16.69 50.09 15.96L50.09 15.96L50.09 8.08L52.56 7.87L52.56 15.41ZM57.54 17.37Q56.27 17.37 55.50 17.00Q54.73 16.62 54.36 15.81Q54.00 15.01 54.00 13.68L54.00 13.68Q54.00 12.35 54.36 11.54Q54.73 10.72 55.50 10.35Q56.27 9.98 57.54 9.98L57.54 9.98Q58.83 9.98 59.61 10.35Q60.38 10.72 60.74 11.54Q61.10 12.35 61.10 13.68L61.10 13.68Q61.10 15.01 60.73 15.81Q60.37 16.62 59.59 17.00Q58.81 17.37 57.54 17.37L57.54 17.37ZM56.64 15.50L57.89 15.50Q58.23 15.50 58.35 15.42Q58.46 15.34 58.46 15.12L58.46 15.12L58.46 11.86L57.22 11.86Q56.88 11.86 56.76 11.94Q56.64 12.01 56.64 12.24L56.64 12.24L56.64 15.50ZM66.26 11.79L65.23 11.79L65.23 15.41Q65.67 15.48 66.09 15.50L66.09 15.50L65.98 17.16Q65.04 17.37 64.39 17.37L64.39 17.37Q63.56 17.37 63.16 17.03Q62.76 16.69 62.76 15.96L62.76 15.96L62.76 11.79L61.99 11.79L61.99 10.18L62.76 10.18L62.76 8.97L65.23 8.36L65.23 10.18L66.26 10.18L66.26 11.79Z"></path></g><!----><g data-v-423bf9ae="" id="07ac9c72-f3c9-45a1-9117-9bc53a362030" transform="matrix(2.8125,0,0,2.8125,0,0)" stroke="none" fill="#000000"><path d="M16 32c8.837 0 16-7.163 16-16S24.837 0 16 0 0 7.163 0 16s7.163 16 16 16zM14.817 6.421h2v8.886h8.887v2H14.817V6.421zm-5.959.437h2v14.283h14.283v2H8.858V6.858z"></path></g><!----></svg>